PathFileType	4	(X/Y/Z)	C:\Users\Basilio\Documents\Thesis Gigler\squatting_fais\c3dfiles\040\SLS_pre_back2\markers_experimental.trc
DataRate	CameraRate	NumFrames	NumMarkers	Units	OrigDataRate	OrigDataStartFrame	OrigNumFrames
200.000000	200.000000	4	63	mm	200.000000	547	1459
Frame#	Time	FHD			LBHD			RBHD			C7			T10			CLAV			LSHO			LUUPA			LMUPA			LDUPA			LLEP			LMEP			LRAD			LUL			LRFIN			RSHO			RUPA1			RMUPA			RDUPA			RLEP			RMEP			RRAD			RUL			RUFIN			LASI			RASI			USACR			LSACR			RSACR			LTHI1			LTHI2			LTHI3			LTHI4			LLFC			LMFC			LTIB1			LTIB2			LTIB3			LTIB4			LLMAL			LMMAL			LHEE			LMT1			LMT2			LMT5			RTHI			RTHI2			RTHI3			RTHI4			RLFC			RMFC			RTIB1			RTIB2			RTIB3			RTIB4			RLMAL			RMMAL			RHEE			RMT1			RMT2			RMT5			*61			*62			
		X1	Y1	Z1	X2	Y2	Z2	X3	Y3	Z3	X4	Y4	Z4	X5	Y5	Z5	X6	Y6	Z6	X7	Y7	Z7	X8	Y8	Z8	X9	Y9	Z9	X10	Y10	Z10	X11	Y11	Z11	X12	Y12	Z12	X13	Y13	Z13	X14	Y14	Z14	X15	Y15	Z15	X16	Y16	Z16	X17	Y17	Z17	X18	Y18	Z18	X19	Y19	Z19	X20	Y20	Z20	X21	Y21	Z21	X22	Y22	Z22	X23	Y23	Z23	X24	Y24	Z24	X25	Y25	Z25	X26	Y26	Z26	X27	Y27	Z27	X28	Y28	Z28	X29	Y29	Z29	X30	Y30	Z30	X31	Y31	Z31	X32	Y32	Z32	X33	Y33	Z33	X34	Y34	Z34	X35	Y35	Z35	X36	Y36	Z36	X37	Y37	Z37	X38	Y38	Z38	X39	Y39	Z39	X40	Y40	Z40	X41	Y41	Z41	X42	Y42	Z42	X43	Y43	Z43	X44	Y44	Z44	X45	Y45	Z45	X46	Y46	Z46	X47	Y47	Z47	X48	Y48	Z48	X49	Y49	Z49	X50	Y50	Z50	X51	Y51	Z51	X52	Y52	Z52	X53	Y53	Z53	X54	Y54	Z54	X55	Y55	Z55	X56	Y56	Z56	X57	Y57	Z57	X58	Y58	Z58	X59	Y59	Z59	X60	Y60	Z60	X61	Y61	Z61	X62	Y62	Z62	X63	Y63	Z63	

548	2.735	-105.6195831298828	1743.185180664063	-1241.96240234375	-230.2172393798829	1692.087524414063	-1283.096801757813	-285.3300170898438	1658.735473632813	-1150.975708007813	-303.8111877441407	1545.428955078125	-1194.320190429688	-393.6836242675782	1246.8076171875	-1164.06640625	-186.6632843017578	1461.618530273438	-1195.988891601563	-235.7147369384766	1522.001953125	-1338.859008789063	-87.3202362060547	1448.371215820313	-1416.2470703125	-54.93175506591798	1459.936889648438	-1380.196899414063	-21.33225440979004	1426.664428710938	-1419.447509765625	31.48913955688477	1391.479125976563	-1419.1416015625	13.31663608551026	1337.581787109375	-1383.758422851563	287.8911743164063	1376.201904296875	-1282.959228515625	305.9887390136719	1380.926879882813	-1356.692993164063	378.3616333007813	1379.989013671875	-1264.57568359375	-211.1116027832032	1513.12890625	-1053.91259765625	-63.68993759155275	1422.632202148438	-989.2092285156252	-34.14275741577149	1439.586303710938	-1024.088623046875	0.9720688462257387	1395.6728515625	-998.152282714844	59.14806747436525	1376.861206054688	-1015.668518066406	33.74008178710938	1319.474853515625	-1059.238647460938	300.1726989746094	1373.654052734375	-1188.6650390625	320.2518310546876	1362.29638671875	-1115.490112304688	393.4743041992189	1376.812377929688	-1204.064697265625	-265.2008361816407	1036.10986328125	-1266.69384765625	-257.1971130371094	1035.87109375	-1041.315673828125	-434.4243469238282	1119.349609375	-1148.439331054688	-450.2196655273439	1090.786987304688	-1176.61669921875	-447.1476440429689	1091.140380859375	-1119.507446289063	-340.7219543457032	783.4321289062502	-1318.826293945313	-285.2775878906251	718.4169921875001	-1318.165649414063	-240.3386840820313	732.5493774414064	-1319.22705078125	-293.1920776367188	662.9347534179689	-1299.383056640625	-246.8445892333985	540.7966918945314	-1279.158813476563	-254.5782470703126	532.7532958984376	-1150.816040039063	-235.7676086425782	319.5759277343751	-1217.2265625	-312.0081481933594	290.0280456542969	-1254.93408203125	-269.3733825683594	277.6841125488282	-1240.421142578125	-274.3434448242188	201.9198913574219	-1197.445190429688	-353.1964416503907	125.2374649047852	-1205.993896484375	-321.3158264160157	141.7074432373047	-1123.952514648438	-417.4722290039064	96.66262817382815	-1156.617797851563	-204.416000366211	54.71257781982423	-1134.8349609375	-204.4463348388672	51.13360595703126	-1181.375122070313	-256.2619323730469	37.54610443115235	-1230.289428710938	-326.4606323242188	776.5893554687502	-969.2889404296877	-297.0968017578126	717.4683837890626	-973.5657958984377	-264.7843017578126	716.2610473632814	-981.1696777343752	-333.3868713378907	642.7280883789064	-978.5659790039065	-349.9813232421876	533.9043579101564	-988.9932861328127	-361.4024658203126	526.0216674804689	-1116.082153320313	-492.1184692382814	414.9436950683595	-1008.425231933594	-586.9893188476564	459.9841308593751	-982.1976318359377	-576.6459350585939	415.2786560058595	-990.4592285156252	-616.5781250000001	384.5297241210939	-1021.717529296875	-742.1393432617189	396.5460510253907	-999.536560058594	-722.8713378906251	384.2512512207032	-1086.36572265625	-794.7256469726565	450.3467102050782	-1058.271118164063	-759.9989013671876	232.3200836181641	-1075.258911132813	-763.6046142578126	231.7702331542969	-1035.221557617188	-802.408874511719	264.9692993164063	-986.8358154296877	nan	nan	nan	nan	nan	nan	
549	2.74	-105.3656997680664	1742.544555664063	-1241.97021484375	-229.6800842285157	1691.377807617188	-1283.16552734375	-284.5188293457032	1657.959716796875	-1151.002197265625	-303.3259582519532	1544.90087890625	-1194.403076171875	-393.7255859375001	1246.509887695313	-1164.104858398438	-186.1437530517578	1460.985107421875	-1196.102172851563	-234.9622955322266	1521.320678710938	-1338.899780273438	-86.82132720947267	1447.430419921875	-1416.334350585938	-54.33058547973634	1458.989868164063	-1380.259643554688	-20.87896728515625	1425.945556640625	-1419.499633789063	32.51710510253907	1390.4150390625	-1419.127685546875	13.71084213256836	1336.91357421875	-1383.872192382813	288.0414428710938	1375.199340820313	-1283.057495117188	306.7509765625001	1379.967407226563	-1356.931884765625	378.4448852539063	1379.5068359375	-1264.567260742188	-210.4853210449219	1512.551513671875	-1054.0185546875	-63.35750579833986	1421.7265625	-989.282165527344	-33.85898590087891	1438.22802734375	-1024.141845703125	1.903740882873536	1394.962646484375	-998.1424560546877	59.81918716430665	1375.818359375	-1015.56982421875	34.65745925903321	1318.800415039063	-1059.715576171875	300.6409606933594	1372.843139648438	-1188.62744140625	320.5884704589844	1361.864501953125	-1115.426879882813	393.7640991210939	1376.01953125	-1204.011840820313	-265.4651184082032	1035.767578125	-1266.595825195313	-257.7113952636719	1035.497192382813	-1041.191284179688	-434.8551635742189	1118.915649414063	-1148.5341796875	-450.6692504882814	1090.340942382813	-1176.740234375	-447.627410888672	1090.644775390625	-1119.531005859375	-340.3175964355469	782.9291992187502	-1318.890747070313	-284.7816162109376	718.1192626953126	-1317.99169921875	-240.0500946044922	732.4093627929689	-1318.942626953125	-292.5420227050782	662.5606689453126	-1299.222534179688	-246.2551727294922	540.6234741210939	-1278.77392578125	-254.2957458496094	532.7890625000001	-1150.540161132813	-235.4175567626954	319.3632812500001	-1216.916259765625	-311.7369689941407	290.0765380859376	-1254.700927734375	-268.7732238769532	277.6878051757813	-1240.191284179688	-273.9794616699219	201.6591796875001	-1197.19873046875	-352.9336853027344	125.1523132324219	-1205.917236328125	-321.3095397949219	141.6642761230469	-1123.832763671875	-417.1696166992189	96.33558654785159	-1156.71728515625	-204.4252319335938	54.66406250000001	-1134.71240234375	-204.3809967041016	51.14884567260744	-1181.3134765625	-256.2192382812501	37.53649902343751	-1230.23583984375	-327.4427185058594	776.1097412109377	-969.1377563476565	-297.4776916503907	716.7023925781251	-973.6130981445315	-265.7523803710938	715.7819824218751	-981.4538574218752	-334.2848815917969	642.1957397460939	-978.5757446289065	-351.2025146484376	533.2235107421876	-989.1751708984377	-363.5397338867188	526.5422973632814	-1116.119262695313	-492.4263610839845	414.9772949218751	-1007.939880371094	-587.9961547851564	459.4885864257814	-982.0447998046877	-577.2136230468751	415.082977294922	-990.4854736328127	-617.5502929687501	383.8311462402344	-1022.907470703125	-742.6967773437501	396.278533935547	-999.1605224609377	-724.1044311523439	383.8019409179688	-1086.040893554688	-795.3340454101565	449.7702636718751	-1058.030517578125	-761.4122314453126	231.8545227050782	-1075.012573242188	-764.4636230468751	231.3123779296876	-1035.266723632813	-803.599792480469	264.7647705078126	-986.420593261719	nan	nan	nan	nan	nan	nan	
550	2.745	-104.8952941894532	1741.806884765625	-1241.891479492188	-228.9994049072266	1690.651245117188	-1283.175659179688	-283.9421386718751	1657.200317382813	-1151.02880859375	-302.5268554687501	1544.183471679688	-1194.421142578125	-393.8216857910157	1246.159545898438	-1164.181274414063	-185.8470916748047	1460.015258789063	-1196.067504882813	-234.3501586914063	1520.646118164063	-1338.912231445313	-86.49980926513673	1446.877807617188	-1416.339599609375	-53.61045074462892	1458.18212890625	-1380.533447265625	-20.33031463623047	1425.196655273438	-1419.56640625	32.94842529296876	1389.76123046875	-1419.237548828125	13.91462421417237	1336.362548828125	-1383.918823242188	288.6908264160157	1373.895874023438	-1283.035400390625	306.6285095214844	1379.161376953125	-1356.811157226563	378.8359069824219	1378.863525390625	-1264.486450195313	-209.9716186523438	1511.7822265625	-1054.089599609375	-62.71958160400392	1421.017211914063	-989.323669433594	-33.30621719360352	1438.13720703125	-1023.94189453125	2.615019083023072	1394.582885742188	-998.0314941406252	60.08261871337892	1374.148681640625	-1015.162475585938	35.24602890014649	1318.4560546875	-1059.59619140625	302.0321350097657	1371.822875976563	-1188.909301757813	321.1662902832032	1360.952026367188	-1115.380859375	394.3180541992189	1375.212280273438	-1203.767456054688	-265.7591247558594	1035.377197265625	-1266.483642578125	-258.2913513183594	1034.998413085938	-1041.04345703125	-435.1151733398439	1118.431030273438	-1148.676879882813	-450.9976501464845	1089.912353515625	-1176.782348632813	-448.1745605468751	1090.314697265625	-1119.578979492188	-340.0272827148438	782.5093994140627	-1318.967163085938	-284.2287597656251	717.7610473632814	-1317.864990234375	-239.5862884521485	732.2221679687501	-1318.641967773438	-292.1721496582032	662.3634033203126	-1299.156005859375	-245.5751495361329	540.5503540039064	-1278.618530273438	-253.9798278808594	532.7562255859376	-1150.255126953125	-234.8332061767579	319.7179870605469	-1216.618041992188	-310.1838989257813	289.8482666015626	-1254.09033203125	-268.3647460937501	277.1619873046876	-1239.906616210938	-273.7674255371094	201.5349273681641	-1196.891357421875	-352.7751464843751	125.1364135742188	-1205.841918945313	-321.3491516113282	141.5905303955078	-1123.724609375	-417.2457275390626	96.43862915039065	-1156.748291015625	-204.5029296875001	54.62783432006837	-1134.657592773438	-204.3695526123047	51.19942855834962	-1181.295532226563	-256.2213134765626	37.66511917114259	-1230.274658203125	-328.2834472656251	775.5508422851565	-969.295104980469	-298.3663940429688	716.2681274414064	-973.542175292969	-266.4282226562501	715.4478759765626	-981.1875000000002	-335.0041809082032	641.6273803710939	-978.6631469726565	-351.8331909179688	532.7213745117189	-989.3364257812502	-364.6452331542969	526.0569458007814	-1116.156494140625	-493.5132751464845	414.4234924316407	-1007.75390625	-589.1819458007814	458.1971130371095	-982.0833129882815	-578.2041015625001	414.7962341308595	-990.2876586914065	-618.5978393554689	382.5318603515626	-1022.955810546875	-743.9553833007814	395.9854125976564	-998.8616943359377	-725.2373657226564	383.3867797851563	-1085.967407226563	-796.5401611328127	449.5270996093751	-1057.644165039063	-762.2238159179689	231.0407409667969	-1074.7919921875	-765.6459350585939	231.0640563964844	-1034.200317382813	-804.7947387695315	264.2660522460938	-986.0039062500002	nan	nan	nan	nan	nan	nan	
551	2.75	-104.0171356201172	1741.096435546875	-1241.871704101563	-228.3271179199219	1689.94677734375	-1283.189331054688	-283.3269958496094	1656.29248046875	-1151.16259765625	-301.8955383300782	1543.700805664063	-1194.47412109375	-393.4875793457032	1246.038452148438	-1164.012817382813	-185.6276550292969	1459.084838867188	-1195.944580078125	-233.6891632080079	1519.980590820313	-1338.887451171875	-85.71736145019533	1446.013549804688	-1416.427490234375	-53.42566299438478	1457.662353515625	-1380.325561523438	-19.82512855529786	1424.43359375	-1419.618774414063	32.96430969238282	1389.215698242188	-1419.169067382813	14.44375705718994	1335.6923828125	-1384.0126953125	289.1445922851563	1373.128295898438	-1283.115112304688	307.6734619140626	1377.906372070313	-1356.757690429688	379.2565002441407	1378.278442382813	-1264.431762695313	-209.4924011230469	1511.071899414063	-1054.058715820313	-62.08519744873048	1420.28564453125	-989.4201660156252	-32.44848632812501	1437.21728515625	-1023.968383789063	2.993268013000489	1393.574340820313	-998.0511474609377	60.72734832763673	1373.260864257813	-1015.440979003906	35.54101181030274	1317.441040039063	-1059.821899414063	301.7955932617188	1371.438354492188	-1188.54345703125	321.8151245117188	1359.910400390625	-1114.884155273438	395.0343627929689	1374.59423828125	-1203.788330078125	-266.1300354003907	1034.951293945313	-1266.27490234375	-259.2272338867188	1034.443603515625	-1040.685668945313	-435.3726196289064	1117.9384765625	-1148.716552734375	-451.3642578125001	1089.603393554688	-1176.840087890625	-448.6086425781251	1089.892944335938	-1119.761962890625	-339.6255798339844	781.9692382812502	-1318.990844726563	-283.7576599121094	717.4326171875001	-1317.726440429688	-239.0721435546876	732.0440063476564	-1318.366577148438	-291.6391296386719	662.0582275390626	-1299.088623046875	-244.6517028808594	540.2963256835939	-1278.323974609375	-253.3333740234376	532.4027099609376	-1149.778686523438	-234.2751770019532	319.7193298339844	-1216.268432617188	-309.5964965820313	289.9342651367188	-1254.032348632813	-267.6962890625001	276.9620666503907	-1239.615844726563	-273.5868225097657	201.5875244140626	-1196.799194335938	-352.5298461914063	124.9174423217774	-1205.721801757813	-321.2690734863282	141.5045928955078	-1123.6103515625	-417.4444274902345	96.60904693603518	-1156.708374023438	-204.7351989746094	54.93318176269533	-1134.57666015625	-204.3759765625001	51.2119483947754	-1181.257568359375	-256.2390441894532	37.6776351928711	-1230.2724609375	-329.1002502441407	775.2012939453127	-969.3891601562502	-299.4531250000001	715.6390991210939	-973.6887207031252	-267.5836486816407	714.4965209960939	-981.1467285156252	-335.6170959472657	640.9228515625001	-978.7375488281252	-352.9206237792969	532.0784301757814	-989.2114868164065	-365.7613830566407	525.5964965820314	-1116.357299804688	-495.136932373047	413.4605407714845	-1008.188232421875	-589.6068115234376	458.4649047851564	-981.613464355469	-579.2108764648439	414.3881225585939	-989.8394775390627	-619.6286010742189	383.2463989257813	-1021.148559570313	-744.9797363281251	395.5097961425782	-998.571960449219	-726.1148071289064	382.9441528320313	-1085.63232421875	-797.7188720703127	449.139129638672	-1057.319702148438	-763.6350097656251	231.4970703125001	-1074.54248046875	-766.7542724609376	230.5730438232422	-1034.277954101563	-805.447448730469	264.2844848632813	-985.5591430664065	nan	nan	nan	nan	nan	nan	
